<svg xmlns="http://www.w3.org/2000/svg" xmlns:xlink="http://www.w3.org/1999/xlink" width="512" zoomAndPan="magnify" viewBox="0 0 384 74.999997" height="100" preserveAspectRatio="xMidYMid meet" version="1.0"><defs><g/><clipPath id="e46c5c5d3d"><path d="M 34 4.3125 L 92 4.3125 L 92 24 L 34 24 Z M 34 4.3125 " clip-rule="nonzero"/></clipPath></defs><path fill="#175880" d="M 100.238281 28.890625 L 98.902344 26.921875 L 100 26.871094 L 100.179688 26.445312 C 100.257812 26.253906 100.277344 26.050781 100.234375 25.851562 C 97.417969 25.964844 87.964844 26.367188 85.785156 26.457031 C 85.492188 26.46875 85.207031 26.382812 84.972656 26.210938 L 84.046875 25.542969 C 83.824219 25.378906 83.558594 25.292969 83.285156 25.292969 L 42.5625 25.292969 C 42.289062 25.292969 42.023438 25.378906 41.800781 25.542969 L 40.878906 26.210938 C 40.640625 26.382812 40.355469 26.46875 40.0625 26.457031 C 37.882812 26.367188 28.429688 25.964844 25.613281 25.851562 C 25.574219 26.050781 25.589844 26.253906 25.671875 26.445312 L 25.851562 26.871094 L 26.945312 26.921875 L 25.613281 28.890625 C 25.46875 29.097656 25.398438 29.347656 25.40625 29.597656 L 25.652344 39.59375 C 25.664062 40.171875 26.101562 40.652344 26.675781 40.722656 L 35.832031 41.847656 C 36.304688 41.90625 36.722656 41.535156 36.722656 41.054688 L 36.722656 32.410156 C 36.722656 32.242188 36.761719 32.078125 36.832031 31.925781 L 38.925781 27.5 L 41.195312 27.605469 L 41.347656 27.359375 C 41.691406 26.808594 42.292969 26.476562 42.933594 26.476562 L 82.914062 26.476562 C 83.558594 26.476562 84.15625 26.808594 84.5 27.359375 L 84.65625 27.605469 L 86.921875 27.5 L 89.015625 31.925781 C 89.089844 32.078125 89.125 32.242188 89.125 32.410156 L 89.125 41.054688 C 89.125 41.535156 89.542969 41.90625 90.015625 41.847656 L 99.171875 40.722656 C 99.746094 40.652344 100.183594 40.171875 100.199219 39.59375 L 100.445312 29.597656 C 100.449219 29.347656 100.378906 29.097656 100.238281 28.890625 Z M 36.890625 28.703125 L 36.8125 28.886719 L 35.582031 31.910156 C 35.527344 32.042969 35.496094 32.183594 35.492188 32.328125 L 33.472656 32.214844 L 32.445312 32.15625 C 32.003906 32.132812 31.628906 32.484375 31.628906 32.929688 L 31.628906 35.277344 C 31.628906 35.664062 31.910156 35.988281 32.292969 36.042969 L 33.535156 36.226562 L 35.304688 36.476562 L 35.171875 39.515625 L 35.160156 39.828125 C 35.144531 40.132812 34.871094 40.355469 34.574219 40.3125 L 28.378906 39.363281 C 27.96875 39.296875 27.660156 38.957031 27.640625 38.542969 L 27.195312 30.082031 C 27.191406 29.992188 27.199219 29.902344 27.222656 29.816406 L 27.550781 28.523438 C 27.671875 28.046875 28.113281 27.714844 28.605469 27.738281 L 36.496094 28.082031 C 36.804688 28.09375 37.007812 28.410156 36.890625 28.703125 Z M 98.207031 38.542969 C 98.1875 38.957031 97.878906 39.296875 97.46875 39.363281 L 91.273438 40.3125 C 90.976562 40.355469 90.703125 40.132812 90.691406 39.828125 L 90.675781 39.515625 L 90.542969 36.476562 L 92.316406 36.226562 L 93.554688 36.042969 C 93.9375 35.988281 94.21875 35.664062 94.21875 35.277344 L 94.21875 32.929688 C 94.21875 32.484375 93.847656 32.132812 93.402344 32.15625 L 92.402344 32.210938 L 90.359375 32.328125 C 90.351562 32.183594 90.320312 32.042969 90.265625 31.910156 L 89.035156 28.886719 L 88.957031 28.703125 C 88.84375 28.410156 89.042969 28.09375 89.355469 28.082031 L 97.242188 27.738281 C 97.738281 27.714844 98.179688 28.046875 98.300781 28.523438 L 98.628906 29.816406 C 98.648438 29.902344 98.660156 29.992188 98.652344 30.082031 L 98.207031 38.542969 " fill-opacity="1" fill-rule="nonzero"/><path fill="#175880" d="M 87.421875 23.863281 C 87.652344 24.152344 88.050781 24.242188 88.382812 24.085938 L 93.789062 21.515625 C 93.65625 21.433594 93.535156 21.328125 93.4375 21.203125 L 92.324219 19.816406 L 91.96875 19.371094 L 86.640625 22.882812 L 87.421875 23.863281 " fill-opacity="1" fill-rule="nonzero"/><path fill="#175880" d="M 75.085938 19.988281 L 50.765625 19.988281 C 50.710938 19.988281 50.683594 20.050781 50.722656 20.089844 L 50.992188 20.359375 C 51.167969 20.539062 51.410156 20.640625 51.664062 20.640625 L 74.183594 20.640625 C 74.4375 20.640625 74.679688 20.539062 74.855469 20.359375 L 75.128906 20.089844 C 75.164062 20.050781 75.140625 19.988281 75.085938 19.988281 " fill-opacity="1" fill-rule="nonzero"/><g clip-path="url(#e46c5c5d3d)"><path fill="#175880" d="M 47.03125 19.914062 C 47.320312 19.933594 47.59375 20.058594 47.800781 20.261719 L 50.902344 23.332031 L 49.8125 20.148438 C 49.667969 19.71875 49.765625 19.25 50.066406 18.914062 L 50.667969 18.246094 C 50.820312 18.078125 51.03125 17.96875 51.253906 17.941406 C 52.605469 17.777344 57.691406 17.210938 62.925781 17.210938 C 68.160156 17.210938 73.242188 17.777344 74.59375 17.941406 C 74.820312 17.96875 75.027344 18.078125 75.179688 18.246094 L 75.785156 18.914062 C 76.085938 19.25 76.183594 19.71875 76.035156 20.148438 L 74.945312 23.332031 L 78.046875 20.261719 C 78.253906 20.058594 78.527344 19.933594 78.816406 19.914062 C 81.070312 19.753906 91.050781 19.058594 91.773438 19.128906 C 91.773438 19.128906 87.566406 10.429688 83.96875 6.660156 C 83.753906 6.429688 83.464844 6.285156 83.15625 6.242188 C 80.757812 5.886719 69.6875 4.3125 62.925781 4.3125 C 56.160156 4.3125 45.09375 5.886719 42.695312 6.242188 C 42.382812 6.285156 42.09375 6.429688 41.878906 6.660156 C 38.28125 10.429688 34.074219 19.128906 34.074219 19.128906 C 34.796875 19.058594 44.777344 19.753906 47.03125 19.914062 Z M 36.269531 18.175781 C 38.425781 14.03125 41.128906 10 42.296875 8.316406 C 42.660156 7.796875 43.234375 7.460938 43.867188 7.402344 C 47.210938 7.089844 58.15625 6.109375 62.925781 6.105469 C 67.691406 6.109375 78.636719 7.089844 81.984375 7.402344 C 82.617188 7.460938 83.191406 7.796875 83.550781 8.316406 C 84.71875 10 87.425781 14.03125 89.582031 18.175781 C 89.707031 18.421875 89.527344 18.710938 89.253906 18.699219 L 76.832031 18.28125 C 76.609375 18.273438 76.398438 18.203125 76.222656 18.070312 L 75.632812 17.632812 C 75.476562 17.515625 75.289062 17.445312 75.09375 17.425781 C 73.828125 17.300781 68.679688 16.8125 62.925781 16.679688 C 57.167969 16.8125 52.023438 17.300781 50.753906 17.425781 C 50.558594 17.445312 50.375 17.515625 50.214844 17.632812 L 49.628906 18.070312 C 49.449219 18.203125 49.238281 18.273438 49.015625 18.28125 L 36.597656 18.699219 C 36.324219 18.710938 36.144531 18.421875 36.269531 18.175781 " fill-opacity="1" fill-rule="nonzero"/></g><path fill="#175880" d="M 38.425781 23.863281 L 39.207031 22.882812 L 33.878906 19.371094 L 33.527344 19.816406 L 32.414062 21.203125 C 32.3125 21.328125 32.191406 21.433594 32.058594 21.515625 L 37.464844 24.085938 C 37.800781 24.242188 38.195312 24.152344 38.425781 23.863281 " fill-opacity="1" fill-rule="nonzero"/><path fill="#297ab8" d="M 101.765625 29.171875 L 100.734375 27.28125 C 100.585938 27.015625 100.300781 26.855469 100 26.871094 L 98.902344 26.921875 L 100.238281 28.890625 C 100.378906 29.097656 100.449219 29.347656 100.445312 29.597656 L 100.199219 39.59375 C 100.183594 40.171875 99.746094 40.652344 99.171875 40.722656 L 90.015625 41.847656 C 89.542969 41.90625 89.125 41.535156 89.125 41.054688 L 89.125 32.410156 C 89.125 32.242188 89.089844 32.078125 89.015625 31.925781 L 86.921875 27.5 L 84.65625 27.605469 L 87.472656 32.140625 C 87.59375 32.335938 87.660156 32.558594 87.664062 32.789062 L 87.816406 40.613281 C 87.824219 41.121094 87.59375 41.597656 87.191406 41.90625 L 85.179688 43.449219 C 84.859375 43.691406 84.464844 43.828125 84.058594 43.828125 L 41.789062 43.828125 C 41.382812 43.828125 40.988281 43.691406 40.667969 43.449219 L 38.65625 41.90625 C 38.253906 41.597656 38.023438 41.121094 38.035156 40.613281 L 38.183594 32.789062 C 38.1875 32.558594 38.253906 32.335938 38.375 32.140625 L 41.195312 27.605469 L 38.925781 27.5 L 36.832031 31.925781 C 36.761719 32.078125 36.722656 32.242188 36.722656 32.410156 L 36.722656 41.054688 C 36.722656 41.535156 36.304688 41.90625 35.832031 41.847656 L 26.675781 40.722656 C 26.101562 40.652344 25.664062 40.171875 25.652344 39.59375 L 25.40625 29.597656 C 25.398438 29.347656 25.46875 29.097656 25.613281 28.890625 L 26.945312 26.921875 L 25.851562 26.871094 C 25.546875 26.855469 25.261719 27.015625 25.117188 27.28125 L 24.082031 29.171875 C 23.980469 29.359375 23.929688 29.570312 23.933594 29.78125 L 23.941406 30.273438 L 24.136719 42.019531 L 36.949219 43.554688 C 37.097656 43.574219 37.238281 43.617188 37.367188 43.6875 L 40.195312 45.234375 C 40.367188 45.328125 40.558594 45.378906 40.75 45.378906 L 85.101562 45.378906 C 85.292969 45.378906 85.484375 45.328125 85.652344 45.234375 L 88.480469 43.6875 C 88.609375 43.617188 88.753906 43.574219 88.898438 43.554688 L 101.710938 42.019531 L 101.90625 30.273438 L 101.914062 29.78125 C 101.917969 29.570312 101.867188 29.359375 101.765625 29.171875 " fill-opacity="1" fill-rule="nonzero"/><path fill="#297ab8" d="M 40.878906 26.210938 L 41.800781 25.542969 C 42.023438 25.378906 42.289062 25.292969 42.5625 25.292969 L 83.285156 25.292969 C 83.558594 25.292969 83.824219 25.378906 84.046875 25.542969 L 84.972656 26.210938 C 85.207031 26.382812 85.492188 26.46875 85.785156 26.457031 C 87.964844 26.367188 97.417969 25.964844 100.234375 25.851562 C 100.210938 25.75 100.171875 25.652344 100.117188 25.5625 L 98.519531 22.882812 C 98.351562 22.597656 98.066406 22.402344 97.742188 22.34375 L 94.292969 21.714844 C 94.113281 21.679688 93.941406 21.613281 93.789062 21.515625 L 88.382812 24.085938 C 88.050781 24.242188 87.652344 24.152344 87.421875 23.863281 L 86.640625 22.882812 L 91.96875 19.371094 L 91.773438 19.128906 C 91.050781 19.058594 81.070312 19.753906 78.816406 19.914062 C 78.527344 19.933594 78.253906 20.058594 78.046875 20.261719 L 74.945312 23.332031 L 76.035156 20.148438 C 76.183594 19.71875 76.085938 19.25 75.785156 18.914062 L 75.179688 18.246094 C 75.027344 18.078125 74.820312 17.96875 74.59375 17.941406 C 73.242188 17.777344 68.160156 17.210938 62.925781 17.210938 C 57.691406 17.210938 52.605469 17.777344 51.253906 17.941406 C 51.03125 17.96875 50.820312 18.078125 50.667969 18.246094 L 50.066406 18.914062 C 49.765625 19.25 49.667969 19.71875 49.8125 20.148438 L 50.902344 23.332031 L 47.800781 20.261719 C 47.59375 20.058594 47.320312 19.933594 47.03125 19.914062 C 44.777344 19.753906 34.796875 19.058594 34.074219 19.128906 L 33.878906 19.371094 L 39.207031 22.882812 L 38.425781 23.863281 C 38.195312 24.152344 37.800781 24.242188 37.464844 24.085938 L 32.058594 21.515625 C 31.90625 21.613281 31.734375 21.679688 31.554688 21.714844 L 28.105469 22.34375 C 27.78125 22.402344 27.496094 22.597656 27.332031 22.882812 L 25.730469 25.5625 C 25.675781 25.652344 25.636719 25.75 25.613281 25.851562 C 28.429688 25.964844 37.882812 26.367188 40.0625 26.457031 C 40.355469 26.46875 40.640625 26.382812 40.878906 26.210938 Z M 50.722656 20.089844 C 50.683594 20.050781 50.710938 19.988281 50.765625 19.988281 L 75.085938 19.988281 C 75.140625 19.988281 75.164062 20.050781 75.128906 20.089844 L 74.855469 20.359375 C 74.679688 20.539062 74.4375 20.640625 74.183594 20.640625 L 51.664062 20.640625 C 51.410156 20.640625 51.167969 20.539062 50.992188 20.359375 L 50.722656 20.089844 " fill-opacity="1" fill-rule="nonzero"/><path fill="#e3c291" d="M 53.875 27.121094 L 52.1875 27.121094 C 52.019531 27.121094 51.863281 27.1875 51.753906 27.300781 C 51.640625 27.414062 51.574219 27.566406 51.574219 27.738281 C 51.574219 28.078125 51.847656 28.355469 52.1875 28.355469 L 53.875 28.355469 C 54.046875 28.355469 54.199219 28.285156 54.308594 28.171875 C 54.421875 28.0625 54.488281 27.90625 54.488281 27.738281 C 54.488281 27.398438 54.214844 27.121094 53.875 27.121094 " fill-opacity="1" fill-rule="nonzero"/><path fill="#e3c291" d="M 63.765625 27.121094 L 62.082031 27.121094 C 61.742188 27.121094 61.464844 27.398438 61.464844 27.738281 C 61.464844 27.90625 61.535156 28.0625 61.648438 28.171875 C 61.757812 28.285156 61.910156 28.355469 62.082031 28.355469 L 63.765625 28.355469 C 64.105469 28.355469 64.382812 28.078125 64.382812 27.738281 C 64.382812 27.566406 64.3125 27.414062 64.203125 27.300781 C 64.089844 27.1875 63.9375 27.121094 63.765625 27.121094 " fill-opacity="1" fill-rule="nonzero"/><path fill="#e3c291" d="M 73.660156 27.121094 L 71.976562 27.121094 C 71.632812 27.121094 71.359375 27.398438 71.359375 27.738281 C 71.359375 27.90625 71.425781 28.0625 71.539062 28.171875 C 71.652344 28.285156 71.804688 28.355469 71.976562 28.355469 L 73.660156 28.355469 C 74 28.355469 74.277344 28.078125 74.277344 27.738281 C 74.277344 27.566406 74.207031 27.414062 74.09375 27.300781 C 73.984375 27.1875 73.828125 27.121094 73.660156 27.121094 " fill-opacity="1" fill-rule="nonzero"/><path fill="#e3c291" d="M 92.019531 38.546875 C 92.019531 38.765625 92.21875 38.933594 92.433594 38.894531 L 95.503906 38.339844 C 95.671875 38.3125 95.796875 38.164062 95.796875 37.992188 L 95.796875 36.597656 C 95.796875 36.394531 95.621094 36.234375 95.417969 36.246094 L 92.347656 36.457031 C 92.160156 36.46875 92.019531 36.625 92.019531 36.808594 L 92.019531 38.546875 " fill-opacity="1" fill-rule="nonzero"/><path fill="#e3c291" d="M 98.628906 29.816406 L 98.300781 28.523438 C 98.179688 28.046875 97.738281 27.714844 97.242188 27.738281 L 89.355469 28.082031 C 89.042969 28.09375 88.84375 28.410156 88.957031 28.703125 L 89.035156 28.886719 L 92.328125 28.773438 L 96.917969 28.609375 C 97.101562 28.605469 97.261719 28.730469 97.296875 28.910156 L 97.628906 30.523438 C 97.65625 30.65625 97.644531 30.789062 97.59375 30.914062 L 96.972656 32.492188 C 96.902344 32.675781 96.726562 32.796875 96.53125 32.808594 L 94.21875 32.929688 L 94.21875 35.277344 L 96.535156 35.277344 C 96.675781 35.277344 96.789062 35.398438 96.777344 35.542969 L 96.546875 38.121094 C 96.519531 38.425781 96.289062 38.675781 95.984375 38.722656 L 92.488281 39.242188 L 90.675781 39.515625 L 90.691406 39.828125 C 90.703125 40.132812 90.976562 40.355469 91.273438 40.3125 L 97.46875 39.363281 C 97.878906 39.296875 98.1875 38.957031 98.207031 38.542969 L 98.652344 30.082031 C 98.660156 29.992188 98.648438 29.902344 98.628906 29.816406 " fill-opacity="1" fill-rule="nonzero"/><path fill="#e3c291" d="M 92.378906 31.808594 L 95.976562 31.507812 C 96.152344 31.496094 96.285156 31.351562 96.285156 31.175781 L 96.285156 29.351562 C 96.285156 29.164062 96.128906 29.011719 95.9375 29.019531 L 92.339844 29.132812 C 92.160156 29.140625 92.019531 29.289062 92.019531 29.46875 L 92.019531 31.476562 C 92.019531 31.671875 92.183594 31.824219 92.378906 31.808594 " fill-opacity="1" fill-rule="nonzero"/><path fill="#e3c291" d="M 36.496094 28.082031 L 28.605469 27.738281 C 28.113281 27.714844 27.671875 28.046875 27.550781 28.523438 L 27.222656 29.816406 C 27.199219 29.902344 27.191406 29.992188 27.195312 30.082031 L 27.640625 38.542969 C 27.660156 38.957031 27.96875 39.296875 28.378906 39.363281 L 34.574219 40.3125 C 34.871094 40.355469 35.144531 40.132812 35.160156 39.828125 L 35.171875 39.515625 L 33.363281 39.242188 L 29.867188 38.722656 C 29.5625 38.675781 29.328125 38.425781 29.300781 38.121094 L 29.074219 35.542969 C 29.058594 35.398438 29.171875 35.277344 29.316406 35.277344 L 31.628906 35.277344 L 31.628906 32.929688 L 29.316406 32.808594 C 29.121094 32.796875 28.949219 32.675781 28.878906 32.492188 L 28.253906 30.914062 C 28.203125 30.789062 28.195312 30.65625 28.21875 30.523438 L 28.550781 28.910156 C 28.589844 28.730469 28.746094 28.605469 28.929688 28.609375 L 33.519531 28.773438 L 36.8125 28.886719 L 36.890625 28.703125 C 37.007812 28.410156 36.804688 28.09375 36.496094 28.082031 " fill-opacity="1" fill-rule="nonzero"/><path fill="#e3c291" d="M 30.433594 36.246094 C 30.226562 36.234375 30.054688 36.394531 30.054688 36.597656 L 30.054688 37.992188 C 30.054688 38.164062 30.175781 38.3125 30.34375 38.339844 L 33.414062 38.894531 C 33.632812 38.933594 33.828125 38.765625 33.828125 38.546875 L 33.828125 36.808594 C 33.828125 36.625 33.6875 36.46875 33.5 36.457031 L 30.433594 36.246094 " fill-opacity="1" fill-rule="nonzero"/><path fill="#e3c291" d="M 33.828125 29.46875 C 33.828125 29.289062 33.6875 29.140625 33.507812 29.132812 L 29.910156 29.019531 C 29.722656 29.011719 29.5625 29.164062 29.5625 29.351562 L 29.5625 31.175781 C 29.5625 31.351562 29.699219 31.496094 29.871094 31.507812 L 33.46875 31.808594 C 33.476562 31.808594 33.488281 31.808594 33.496094 31.808594 C 33.679688 31.808594 33.828125 31.660156 33.828125 31.476562 L 33.828125 29.46875 " fill-opacity="1" fill-rule="nonzero"/><path fill="#263f4b" d="M 38.65625 41.90625 L 40.667969 43.449219 C 40.988281 43.691406 41.382812 43.828125 41.789062 43.828125 L 84.058594 43.828125 C 84.464844 43.828125 84.859375 43.691406 85.179688 43.449219 L 87.191406 41.90625 C 87.59375 41.597656 87.824219 41.121094 87.816406 40.613281 L 87.664062 32.789062 C 87.660156 32.558594 87.59375 32.335938 87.472656 32.140625 L 84.65625 27.605469 L 84.5 27.359375 C 84.15625 26.808594 83.558594 26.476562 82.914062 26.476562 L 42.933594 26.476562 C 42.292969 26.476562 41.691406 26.808594 41.347656 27.359375 L 41.195312 27.605469 L 38.375 32.140625 C 38.253906 32.335938 38.1875 32.558594 38.183594 32.789062 L 38.035156 40.613281 C 38.023438 41.121094 38.253906 41.597656 38.65625 41.90625 Z M 75.378906 42.574219 L 50.472656 42.574219 C 50.398438 42.574219 50.359375 42.480469 50.410156 42.425781 L 50.960938 41.878906 C 50.976562 41.859375 51 41.851562 51.019531 41.851562 L 74.828125 41.851562 C 74.851562 41.851562 74.875 41.859375 74.886719 41.878906 L 75.4375 42.425781 C 75.492188 42.480469 75.453125 42.574219 75.378906 42.574219 Z M 71.976562 27.121094 L 73.660156 27.121094 C 73.828125 27.121094 73.984375 27.1875 74.09375 27.300781 C 74.207031 27.414062 74.277344 27.566406 74.277344 27.738281 C 74.277344 28.078125 74 28.355469 73.660156 28.355469 L 71.976562 28.355469 C 71.804688 28.355469 71.652344 28.285156 71.539062 28.171875 C 71.425781 28.0625 71.359375 27.90625 71.359375 27.738281 C 71.359375 27.398438 71.632812 27.121094 71.976562 27.121094 Z M 62.082031 27.121094 L 63.765625 27.121094 C 63.9375 27.121094 64.089844 27.1875 64.203125 27.300781 C 64.3125 27.414062 64.382812 27.566406 64.382812 27.738281 C 64.382812 28.078125 64.105469 28.355469 63.765625 28.355469 L 62.082031 28.355469 C 61.910156 28.355469 61.757812 28.285156 61.648438 28.171875 C 61.535156 28.0625 61.464844 27.90625 61.464844 27.738281 C 61.464844 27.398438 61.742188 27.121094 62.082031 27.121094 Z M 51.753906 27.300781 C 51.863281 27.1875 52.019531 27.121094 52.1875 27.121094 L 53.875 27.121094 C 54.214844 27.121094 54.488281 27.398438 54.488281 27.738281 C 54.488281 27.90625 54.421875 28.0625 54.308594 28.171875 C 54.199219 28.285156 54.046875 28.355469 53.875 28.355469 L 52.1875 28.355469 C 51.847656 28.355469 51.574219 28.078125 51.574219 27.738281 C 51.574219 27.566406 51.640625 27.414062 51.753906 27.300781 Z M 40.269531 32.132812 L 42.617188 28.296875 C 42.828125 27.949219 43.207031 27.738281 43.613281 27.738281 L 48.054688 27.738281 C 48.339844 27.738281 48.617188 27.84375 48.832031 28.035156 L 49.832031 28.921875 C 50.042969 29.109375 50.3125 29.210938 50.59375 29.210938 L 75.257812 29.210938 C 75.535156 29.210938 75.808594 29.109375 76.019531 28.921875 L 77.015625 28.035156 C 77.230469 27.84375 77.507812 27.738281 77.792969 27.738281 L 82.234375 27.738281 C 82.640625 27.738281 83.019531 27.949219 83.234375 28.296875 L 85.578125 32.132812 C 85.703125 32.335938 85.558594 32.601562 85.316406 32.601562 L 40.53125 32.601562 C 40.292969 32.601562 40.144531 32.335938 40.269531 32.132812 Z M 39.984375 38.050781 C 39.984375 37.632812 40.320312 37.296875 40.734375 37.296875 L 85.113281 37.296875 C 85.527344 37.296875 85.867188 37.632812 85.867188 38.050781 L 85.867188 39.734375 C 85.867188 40.105469 85.703125 40.453125 85.421875 40.695312 L 84.511719 41.46875 C 84.296875 41.652344 84.023438 41.757812 83.738281 41.765625 L 77.765625 41.941406 C 77.496094 41.949219 77.230469 41.871094 77.007812 41.714844 L 75.628906 40.746094 C 75.460938 40.625 75.257812 40.5625 75.054688 40.5625 L 50.796875 40.5625 C 50.589844 40.5625 50.386719 40.625 50.222656 40.746094 L 48.839844 41.714844 C 48.617188 41.871094 48.351562 41.949219 48.082031 41.941406 L 42.109375 41.765625 C 41.828125 41.757812 41.554688 41.652344 41.335938 41.46875 L 40.425781 40.695312 C 40.144531 40.453125 39.984375 40.105469 39.984375 39.734375 L 39.984375 38.050781 " fill-opacity="1" fill-rule="nonzero"/><path fill="#263f4b" d="M 96.496094 18.84375 L 99.027344 18.109375 L 95.441406 18.109375 C 95.238281 18.109375 95.074219 18.273438 95.074219 18.476562 L 95.074219 21.457031 L 95.585938 19.75 C 95.714844 19.308594 96.058594 18.972656 96.496094 18.84375 " fill-opacity="1" fill-rule="nonzero"/><path fill="#263f4b" d="M 30.261719 19.75 L 30.773438 21.457031 L 30.773438 18.476562 C 30.773438 18.273438 30.609375 18.109375 30.40625 18.109375 L 26.820312 18.109375 L 29.355469 18.84375 C 29.789062 18.972656 30.132812 19.308594 30.261719 19.75 " fill-opacity="1" fill-rule="nonzero"/><path fill="#263f4b" d="M 88.539062 58.078125 C 88.316406 58.023438 88.078125 57.992188 87.832031 57.992188 C 86.691406 57.992188 85.773438 58.625 85.773438 59.40625 C 85.773438 60.1875 86.691406 60.820312 87.832031 60.820312 C 88.152344 60.820312 88.460938 60.773438 88.730469 60.679688 C 89.414062 60.449219 89.886719 59.96875 89.886719 59.40625 C 89.886719 58.796875 89.324219 58.277344 88.539062 58.078125 " fill-opacity="1" fill-rule="nonzero"/><path fill="#263f4b" d="M 85.046875 54.726562 C 84.894531 54.273438 84.46875 53.964844 83.988281 53.964844 L 77.734375 53.964844 C 77.417969 53.964844 77.113281 54.085938 76.886719 54.304688 L 76.320312 54.84375 C 76.109375 55.046875 75.828125 55.164062 75.53125 55.164062 L 50.316406 55.164062 C 50.023438 55.164062 49.738281 55.046875 49.527344 54.84375 L 48.964844 54.304688 C 48.734375 54.085938 48.433594 53.964844 48.117188 53.964844 L 41.859375 53.964844 C 41.378906 53.964844 40.953125 54.273438 40.800781 54.726562 L 40.511719 55.601562 C 40.441406 55.8125 40.4375 56.039062 40.496094 56.253906 L 40.875 57.617188 C 40.988281 58.015625 41.308594 58.320312 41.710938 58.40625 L 45.097656 59.144531 L 45.101562 59.144531 L 47.144531 59.589844 C 47.25 59.613281 47.359375 59.625 47.46875 59.625 L 78.378906 59.625 C 78.488281 59.625 78.597656 59.613281 78.707031 59.589844 L 80.746094 59.144531 L 80.75 59.144531 L 84.136719 58.40625 C 84.539062 58.320312 84.863281 58.015625 84.972656 57.617188 L 85.351562 56.253906 C 85.414062 56.039062 85.40625 55.8125 85.335938 55.601562 Z M 48.132812 57.882812 C 48.132812 58.074219 47.96875 58.222656 47.78125 58.203125 L 43.476562 57.765625 C 43.359375 57.753906 43.257812 57.675781 43.214844 57.566406 L 42.613281 56.007812 C 42.597656 55.96875 42.589844 55.929688 42.589844 55.890625 L 42.589844 55.511719 C 42.589844 55.332031 42.746094 55.183594 42.925781 55.195312 L 46.933594 55.425781 C 46.996094 55.429688 47.058594 55.453125 47.109375 55.492188 L 48.007812 56.183594 C 48.085938 56.242188 48.132812 56.335938 48.132812 56.433594 Z M 83.257812 55.890625 C 83.257812 55.929688 83.25 55.96875 83.238281 56.007812 L 82.636719 57.566406 C 82.59375 57.675781 82.492188 57.753906 82.371094 57.765625 L 78.066406 58.203125 C 77.878906 58.222656 77.714844 58.074219 77.714844 57.882812 L 77.714844 56.433594 C 77.714844 56.335938 77.761719 56.242188 77.839844 56.183594 L 78.738281 55.492188 C 78.789062 55.453125 78.851562 55.429688 78.914062 55.425781 L 82.921875 55.195312 C 83.105469 55.183594 83.257812 55.332031 83.257812 55.511719 L 83.257812 55.890625 " fill-opacity="1" fill-rule="nonzero"/><path fill="#263f4b" d="M 38.019531 57.992188 C 37.769531 57.992188 37.535156 58.023438 37.3125 58.078125 C 36.523438 58.277344 35.960938 58.796875 35.960938 59.40625 C 35.960938 59.96875 36.433594 60.449219 37.117188 60.679688 C 37.390625 60.773438 37.695312 60.820312 38.019531 60.820312 C 39.15625 60.820312 40.078125 60.1875 40.078125 59.40625 C 40.078125 58.625 39.15625 57.992188 38.019531 57.992188 " fill-opacity="1" fill-rule="nonzero"/><path fill="#263f4b" d="M 52.289062 49.390625 L 43.121094 49.390625 C 42.929688 49.390625 42.757812 49.511719 42.691406 49.691406 C 42.425781 50.410156 41.867188 52.144531 41.679688 52.847656 C 41.640625 53 41.753906 53.148438 41.910156 53.148438 L 48.820312 53.148438 C 48.929688 53.148438 49.03125 53.1875 49.113281 53.257812 L 50.28125 54.292969 C 50.359375 54.363281 50.457031 54.398438 50.5625 54.398438 L 52.71875 54.398438 C 52.902344 54.398438 53.046875 54.238281 53.027344 54.054688 L 52.601562 49.675781 C 52.585938 49.515625 52.453125 49.390625 52.289062 49.390625 " fill-opacity="1" fill-rule="nonzero"/><path fill="#263f4b" d="M 82.726562 49.390625 L 73.558594 49.390625 C 73.398438 49.390625 73.261719 49.515625 73.246094 49.675781 L 72.820312 54.054688 C 72.800781 54.238281 72.945312 54.398438 73.132812 54.398438 L 75.289062 54.398438 C 75.390625 54.398438 75.488281 54.363281 75.566406 54.292969 L 76.738281 53.257812 C 76.816406 53.1875 76.917969 53.148438 77.027344 53.148438 L 83.9375 53.148438 C 84.09375 53.148438 84.210938 53 84.167969 52.847656 C 83.980469 52.144531 83.425781 50.410156 83.160156 49.691406 C 83.089844 49.511719 82.917969 49.390625 82.726562 49.390625 " fill-opacity="1" fill-rule="nonzero"/><path fill="#263f4b" d="M 86.742188 55.386719 L 88.0625 54.835938 C 88.367188 54.714844 88.527344 54.378906 88.429688 54.0625 L 86.648438 48.023438 C 86.511719 47.578125 86.101562 47.269531 85.636719 47.269531 L 40.210938 47.269531 C 39.746094 47.269531 39.335938 47.578125 39.203125 48.023438 L 37.417969 54.0625 C 37.324219 54.378906 37.480469 54.714844 37.785156 54.835938 L 39.105469 55.386719 C 39.453125 55.527344 39.847656 55.34375 39.960938 54.984375 L 41.75 49.230469 C 41.886719 48.789062 42.292969 48.492188 42.753906 48.492188 L 83.09375 48.492188 C 83.554688 48.492188 83.960938 48.789062 84.097656 49.230469 L 85.890625 54.984375 C 86 55.34375 86.394531 55.527344 86.742188 55.386719 " fill-opacity="1" fill-rule="nonzero"/><path fill="#263f4b" d="M 102.847656 43.265625 L 102.488281 43.328125 L 89.222656 45.652344 C 88.875 45.710938 88.570312 45.917969 88.382812 46.214844 L 88.019531 46.800781 C 87.832031 47.097656 87.78125 47.460938 87.878906 47.800781 L 89.402344 53.171875 C 89.523438 53.601562 89.984375 53.832031 90.398438 53.675781 L 101.296875 49.582031 C 101.613281 49.460938 101.851562 49.199219 101.945312 48.875 L 103.007812 45.167969 L 103.382812 43.859375 C 103.480469 43.523438 103.191406 43.203125 102.847656 43.265625 Z M 100.160156 45.519531 L 99.320312 48.457031 C 99.265625 48.648438 99.125 48.800781 98.941406 48.871094 L 92.5625 51.265625 C 92.320312 51.355469 92.050781 51.222656 91.980469 50.96875 L 91.089844 47.828125 C 91.03125 47.628906 91.0625 47.417969 91.167969 47.242188 L 91.382812 46.898438 C 91.492188 46.726562 91.671875 46.605469 91.875 46.566406 L 99.847656 45.171875 C 100.050781 45.136719 100.21875 45.324219 100.160156 45.519531 " fill-opacity="1" fill-rule="nonzero"/><path fill="#263f4b" d="M 36.445312 53.171875 L 37.972656 47.800781 C 38.066406 47.460938 38.015625 47.097656 37.832031 46.800781 L 37.464844 46.214844 C 37.277344 45.917969 36.972656 45.710938 36.628906 45.652344 L 23.359375 43.328125 L 23 43.265625 C 22.65625 43.203125 22.371094 43.523438 22.464844 43.859375 L 22.839844 45.167969 L 23.902344 48.875 C 23.996094 49.199219 24.238281 49.460938 24.550781 49.582031 L 35.449219 53.675781 C 35.867188 53.832031 36.324219 53.601562 36.445312 53.171875 Z M 34.761719 47.828125 L 33.867188 50.96875 C 33.796875 51.222656 33.527344 51.355469 33.285156 51.265625 L 26.90625 48.871094 C 26.722656 48.800781 26.582031 48.648438 26.527344 48.457031 L 25.6875 45.519531 C 25.632812 45.324219 25.800781 45.136719 26 45.171875 L 33.976562 46.566406 C 34.175781 46.605469 34.355469 46.726562 34.464844 46.898438 L 34.679688 47.242188 C 34.785156 47.417969 34.816406 47.628906 34.761719 47.828125 " fill-opacity="1" fill-rule="nonzero"/><path fill="#000000" d="M 74.828125 41.851562 L 51.019531 41.851562 C 51 41.851562 50.976562 41.859375 50.960938 41.878906 L 50.410156 42.425781 C 50.359375 42.480469 50.398438 42.574219 50.472656 42.574219 L 75.378906 42.574219 C 75.453125 42.574219 75.492188 42.480469 75.4375 42.425781 L 74.886719 41.878906 C 74.875 41.859375 74.851562 41.851562 74.828125 41.851562 " fill-opacity="1" fill-rule="nonzero"/><path fill="#000000" d="M 62.925781 32.601562 L 85.316406 32.601562 C 85.558594 32.601562 85.703125 32.335938 85.578125 32.132812 L 83.234375 28.296875 C 83.019531 27.949219 82.640625 27.738281 82.234375 27.738281 L 77.792969 27.738281 C 77.507812 27.738281 77.230469 27.84375 77.015625 28.035156 L 76.019531 28.921875 C 75.808594 29.109375 75.535156 29.210938 75.257812 29.210938 L 50.59375 29.210938 C 50.3125 29.210938 50.042969 29.109375 49.832031 28.921875 L 48.832031 28.035156 C 48.617188 27.84375 48.339844 27.738281 48.054688 27.738281 L 43.613281 27.738281 C 43.207031 27.738281 42.828125 27.949219 42.617188 28.296875 L 40.269531 32.132812 C 40.144531 32.335938 40.292969 32.601562 40.53125 32.601562 L 62.925781 32.601562 " fill-opacity="1" fill-rule="nonzero"/><path fill="#000000" d="M 77.007812 41.714844 C 77.230469 41.871094 77.496094 41.949219 77.765625 41.941406 L 83.738281 41.765625 C 84.023438 41.757812 84.296875 41.652344 84.511719 41.46875 L 85.421875 40.695312 C 85.703125 40.453125 85.867188 40.105469 85.867188 39.734375 L 85.867188 38.050781 C 85.867188 37.632812 85.527344 37.296875 85.113281 37.296875 L 40.734375 37.296875 C 40.320312 37.296875 39.984375 37.632812 39.984375 38.050781 L 39.984375 39.734375 C 39.984375 40.105469 40.144531 40.453125 40.425781 40.695312 L 41.335938 41.46875 C 41.554688 41.652344 41.828125 41.757812 42.109375 41.765625 L 48.082031 41.941406 C 48.351562 41.949219 48.617188 41.871094 48.839844 41.714844 L 50.222656 40.746094 C 50.386719 40.625 50.589844 40.5625 50.796875 40.5625 L 75.054688 40.5625 C 75.257812 40.5625 75.460938 40.625 75.628906 40.746094 L 77.007812 41.714844 " fill-opacity="1" fill-rule="nonzero"/><path fill="#000000" d="M 36.597656 18.699219 L 49.015625 18.28125 C 49.238281 18.273438 49.449219 18.203125 49.628906 18.070312 L 50.214844 17.632812 C 50.375 17.515625 50.558594 17.445312 50.753906 17.425781 C 52.023438 17.300781 57.167969 16.8125 62.925781 16.679688 C 68.679688 16.8125 73.828125 17.300781 75.09375 17.425781 C 75.289062 17.445312 75.476562 17.515625 75.632812 17.632812 L 76.222656 18.070312 C 76.398438 18.203125 76.609375 18.273438 76.832031 18.28125 L 89.253906 18.699219 C 89.527344 18.710938 89.707031 18.421875 89.582031 18.175781 C 87.425781 14.03125 84.71875 10 83.550781 8.316406 C 83.191406 7.796875 82.617188 7.460938 81.984375 7.402344 C 78.636719 7.089844 67.691406 6.109375 62.925781 6.105469 C 58.15625 6.109375 47.210938 7.089844 43.867188 7.402344 C 43.234375 7.460938 42.660156 7.796875 42.296875 8.316406 C 41.128906 10 38.425781 14.03125 36.269531 18.175781 C 36.144531 18.421875 36.324219 18.710938 36.597656 18.699219 " fill-opacity="1" fill-rule="nonzero"/><path fill="#000000" d="M 26.960938 22.800781 L 27.332031 22.882812 C 27.496094 22.597656 27.78125 22.402344 28.105469 22.34375 L 31.554688 21.714844 C 31.734375 21.679688 31.90625 21.613281 32.058594 21.515625 C 32.191406 21.433594 32.3125 21.328125 32.414062 21.203125 L 33.527344 19.816406 L 32.574219 19.816406 C 32.226562 19.816406 31.9375 19.546875 31.910156 19.195312 L 31.75 16.964844 C 31.726562 16.667969 31.480469 16.433594 31.179688 16.433594 L 28.328125 16.433594 C 28.089844 16.433594 27.859375 16.515625 27.671875 16.660156 L 26.453125 17.625 C 26.195312 17.828125 26.046875 18.132812 26.046875 18.460938 L 26.046875 21.660156 C 26.046875 22.207031 26.429688 22.683594 26.960938 22.800781 Z M 30.40625 18.109375 C 30.609375 18.109375 30.773438 18.273438 30.773438 18.476562 L 30.773438 21.457031 L 30.261719 19.75 C 30.132812 19.308594 29.789062 18.972656 29.355469 18.84375 L 26.820312 18.109375 L 30.40625 18.109375 " fill-opacity="1" fill-rule="nonzero"/><path fill="#000000" d="M 93.789062 21.515625 C 93.941406 21.613281 94.113281 21.679688 94.292969 21.714844 L 97.742188 22.34375 C 98.066406 22.402344 98.351562 22.597656 98.519531 22.882812 L 98.886719 22.800781 C 99.421875 22.683594 99.800781 22.207031 99.800781 21.660156 L 99.800781 18.460938 C 99.800781 18.132812 99.652344 17.828125 99.398438 17.625 L 98.175781 16.660156 C 97.988281 16.515625 97.757812 16.433594 97.519531 16.433594 L 94.667969 16.433594 C 94.367188 16.433594 94.121094 16.667969 94.097656 16.964844 L 93.9375 19.195312 C 93.914062 19.546875 93.621094 19.816406 93.273438 19.816406 L 92.324219 19.816406 L 93.4375 21.203125 C 93.535156 21.328125 93.65625 21.433594 93.789062 21.515625 Z M 95.074219 18.476562 C 95.074219 18.273438 95.238281 18.109375 95.441406 18.109375 L 99.027344 18.109375 L 96.496094 18.84375 C 96.058594 18.972656 95.714844 19.308594 95.585938 19.75 L 95.074219 21.457031 L 95.074219 18.476562 " fill-opacity="1" fill-rule="nonzero"/><path fill="#000000" d="M 96.972656 32.492188 L 97.59375 30.914062 C 97.644531 30.789062 97.65625 30.65625 97.628906 30.523438 L 97.296875 28.910156 C 97.261719 28.730469 97.101562 28.605469 96.917969 28.609375 L 92.328125 28.773438 L 89.035156 28.886719 L 90.265625 31.910156 C 90.320312 32.042969 90.351562 32.183594 90.359375 32.328125 L 92.402344 32.210938 L 93.402344 32.15625 C 93.847656 32.132812 94.21875 32.484375 94.21875 32.929688 L 96.53125 32.808594 C 96.726562 32.796875 96.902344 32.675781 96.972656 32.492188 Z M 96.285156 31.175781 C 96.285156 31.351562 96.152344 31.496094 95.976562 31.507812 L 92.378906 31.808594 C 92.183594 31.824219 92.019531 31.671875 92.019531 31.476562 L 92.019531 29.46875 C 92.019531 29.289062 92.160156 29.140625 92.339844 29.132812 L 95.9375 29.019531 C 96.128906 29.011719 96.285156 29.164062 96.285156 29.351562 L 96.285156 31.175781 " fill-opacity="1" fill-rule="nonzero"/><path fill="#000000" d="M 94.21875 35.277344 C 94.21875 35.664062 93.9375 35.988281 93.554688 36.042969 L 92.316406 36.226562 L 90.542969 36.476562 L 90.675781 39.515625 L 92.488281 39.242188 L 95.984375 38.722656 C 96.289062 38.675781 96.519531 38.425781 96.546875 38.121094 L 96.777344 35.542969 C 96.789062 35.398438 96.675781 35.277344 96.535156 35.277344 Z M 95.796875 37.992188 C 95.796875 38.164062 95.671875 38.3125 95.503906 38.339844 L 92.433594 38.894531 C 92.21875 38.933594 92.019531 38.765625 92.019531 38.546875 L 92.019531 36.808594 C 92.019531 36.625 92.160156 36.46875 92.347656 36.457031 L 95.417969 36.246094 C 95.621094 36.234375 95.796875 36.394531 95.796875 36.597656 L 95.796875 37.992188 " fill-opacity="1" fill-rule="nonzero"/><path fill="#000000" d="M 31.628906 35.277344 L 29.316406 35.277344 C 29.171875 35.277344 29.058594 35.398438 29.074219 35.542969 L 29.300781 38.121094 C 29.328125 38.425781 29.5625 38.675781 29.867188 38.722656 L 33.363281 39.242188 L 35.171875 39.515625 L 35.304688 36.476562 L 33.535156 36.226562 L 32.292969 36.042969 C 31.910156 35.988281 31.628906 35.664062 31.628906 35.277344 Z M 33.828125 36.808594 L 33.828125 38.546875 C 33.828125 38.765625 33.632812 38.933594 33.414062 38.894531 L 30.34375 38.339844 C 30.175781 38.3125 30.054688 38.164062 30.054688 37.992188 L 30.054688 36.597656 C 30.054688 36.394531 30.226562 36.234375 30.433594 36.246094 L 33.5 36.457031 C 33.6875 36.46875 33.828125 36.625 33.828125 36.808594 " fill-opacity="1" fill-rule="nonzero"/><path fill="#000000" d="M 35.582031 31.910156 L 36.8125 28.886719 L 33.519531 28.773438 L 28.929688 28.609375 C 28.746094 28.605469 28.589844 28.730469 28.550781 28.910156 L 28.21875 30.523438 C 28.195312 30.65625 28.203125 30.789062 28.253906 30.914062 L 28.878906 32.492188 C 28.949219 32.675781 29.121094 32.796875 29.316406 32.808594 L 31.628906 32.929688 C 31.628906 32.484375 32.003906 32.132812 32.445312 32.15625 L 33.472656 32.214844 L 35.492188 32.328125 C 35.496094 32.183594 35.527344 32.042969 35.582031 31.910156 Z M 33.828125 31.476562 C 33.828125 31.660156 33.679688 31.808594 33.496094 31.808594 C 33.488281 31.808594 33.476562 31.808594 33.46875 31.808594 L 29.871094 31.507812 C 29.699219 31.496094 29.5625 31.351562 29.5625 31.175781 L 29.5625 29.351562 C 29.5625 29.164062 29.722656 29.011719 29.910156 29.019531 L 33.507812 29.132812 C 33.6875 29.140625 33.828125 29.289062 33.828125 29.46875 L 33.828125 31.476562 " fill-opacity="1" fill-rule="nonzero"/><path fill="#000000" d="M 99.847656 45.171875 L 91.875 46.566406 C 91.671875 46.605469 91.492188 46.726562 91.382812 46.898438 L 91.167969 47.242188 C 91.0625 47.417969 91.03125 47.628906 91.089844 47.828125 L 91.980469 50.96875 C 92.050781 51.222656 92.320312 51.355469 92.5625 51.265625 L 98.941406 48.871094 C 99.125 48.800781 99.265625 48.648438 99.320312 48.457031 L 100.160156 45.519531 C 100.21875 45.324219 100.050781 45.136719 99.847656 45.171875 " fill-opacity="1" fill-rule="nonzero"/><path fill="#000000" d="M 26.90625 48.871094 L 33.285156 51.265625 C 33.527344 51.355469 33.796875 51.222656 33.867188 50.96875 L 34.761719 47.828125 C 34.816406 47.628906 34.785156 47.417969 34.679688 47.242188 L 34.464844 46.898438 C 34.355469 46.726562 34.175781 46.605469 33.976562 46.566406 L 26 45.171875 C 25.800781 45.136719 25.632812 45.324219 25.6875 45.519531 L 26.527344 48.457031 C 26.582031 48.648438 26.722656 48.800781 26.90625 48.871094 " fill-opacity="1" fill-rule="nonzero"/><path fill="#000000" d="M 82.636719 57.566406 L 83.238281 56.007812 C 83.25 55.96875 83.257812 55.929688 83.257812 55.890625 L 83.257812 55.511719 C 83.257812 55.332031 83.105469 55.183594 82.921875 55.195312 L 78.914062 55.425781 C 78.851562 55.429688 78.789062 55.453125 78.738281 55.492188 L 77.839844 56.183594 C 77.761719 56.242188 77.714844 56.335938 77.714844 56.433594 L 77.714844 57.882812 C 77.714844 58.074219 77.878906 58.222656 78.066406 58.203125 L 82.371094 57.765625 C 82.492188 57.753906 82.59375 57.675781 82.636719 57.566406 " fill-opacity="1" fill-rule="nonzero"/><path fill="#000000" d="M 48.007812 56.183594 L 47.109375 55.492188 C 47.058594 55.453125 46.996094 55.429688 46.933594 55.425781 L 42.925781 55.195312 C 42.746094 55.183594 42.589844 55.332031 42.589844 55.511719 L 42.589844 55.890625 C 42.589844 55.929688 42.597656 55.96875 42.613281 56.007812 L 43.214844 57.566406 C 43.257812 57.675781 43.359375 57.753906 43.476562 57.765625 L 47.78125 58.203125 C 47.96875 58.222656 48.132812 58.074219 48.132812 57.882812 L 48.132812 56.433594 C 48.132812 56.335938 48.085938 56.242188 48.007812 56.183594 " fill-opacity="1" fill-rule="nonzero"/><path fill="#000000" d="M 103.007812 45.167969 L 101.945312 48.875 C 101.851562 49.199219 101.613281 49.460938 101.296875 49.582031 L 90.398438 53.675781 C 89.984375 53.832031 89.523438 53.601562 89.402344 53.171875 L 87.878906 47.800781 C 87.78125 47.460938 87.832031 47.097656 88.019531 46.800781 L 88.382812 46.214844 C 88.570312 45.917969 88.875 45.710938 89.222656 45.652344 L 102.488281 43.328125 L 102.488281 43.324219 L 102.257812 41.957031 L 103.671875 41.785156 L 103.671875 33.820312 C 103.671875 33.527344 103.597656 33.246094 103.453125 32.992188 L 101.914062 30.273438 L 101.90625 30.273438 L 101.710938 42.019531 L 88.898438 43.554688 C 88.753906 43.574219 88.609375 43.617188 88.480469 43.6875 L 85.652344 45.234375 C 85.484375 45.328125 85.292969 45.378906 85.101562 45.378906 L 40.75 45.378906 C 40.558594 45.378906 40.367188 45.328125 40.195312 45.234375 L 37.367188 43.6875 C 37.238281 43.617188 37.097656 43.574219 36.949219 43.554688 L 24.136719 42.019531 L 23.941406 30.273438 L 23.933594 30.273438 L 22.394531 32.992188 C 22.25 33.246094 22.175781 33.527344 22.175781 33.820312 L 22.175781 41.785156 L 23.59375 41.957031 L 23.359375 43.324219 L 23.359375 43.328125 L 36.628906 45.652344 C 36.972656 45.710938 37.277344 45.917969 37.464844 46.214844 L 37.832031 46.800781 C 38.015625 47.097656 38.066406 47.460938 37.972656 47.800781 L 36.445312 53.171875 C 36.324219 53.601562 35.867188 53.832031 35.449219 53.675781 L 24.550781 49.582031 C 24.238281 49.460938 23.996094 49.199219 23.902344 48.875 L 22.839844 45.167969 C 22.8125 45.304688 19.8125 60.210938 24.269531 69.488281 C 24.46875 69.90625 24.851562 70.207031 25.304688 70.308594 C 26.546875 70.585938 29.320312 71.054688 32.882812 70.765625 C 33.230469 70.738281 33.558594 70.601562 33.820312 70.371094 C 34.652344 69.644531 36.246094 67.539062 36.988281 61.792969 L 45.097656 59.144531 L 41.710938 58.40625 C 41.308594 58.320312 40.988281 58.015625 40.875 57.617188 L 40.496094 56.253906 C 40.4375 56.039062 40.441406 55.8125 40.511719 55.601562 L 40.800781 54.726562 C 40.953125 54.273438 41.378906 53.964844 41.859375 53.964844 L 48.117188 53.964844 C 48.433594 53.964844 48.734375 54.085938 48.964844 54.304688 L 49.527344 54.84375 C 49.738281 55.046875 50.023438 55.164062 50.316406 55.164062 L 75.53125 55.164062 C 75.828125 55.164062 76.109375 55.046875 76.320312 54.84375 L 76.886719 54.304688 C 77.113281 54.085938 77.417969 53.964844 77.734375 53.964844 L 83.988281 53.964844 C 84.46875 53.964844 84.894531 54.273438 85.046875 54.726562 L 85.335938 55.601562 C 85.40625 55.8125 85.414062 56.039062 85.351562 56.253906 L 84.972656 57.617188 C 84.863281 58.015625 84.539062 58.320312 84.136719 58.40625 L 80.75 59.144531 L 88.859375 61.792969 C 89.605469 67.539062 91.195312 69.644531 92.027344 70.371094 C 92.289062 70.601562 92.621094 70.738281 92.964844 70.765625 C 96.53125 71.054688 99.300781 70.585938 100.542969 70.308594 C 100.996094 70.207031 101.378906 69.90625 101.582031 69.488281 C 106.035156 60.210938 103.035156 45.304688 103.007812 45.167969 Z M 38.019531 60.820312 C 37.695312 60.820312 37.390625 60.773438 37.117188 60.679688 C 36.433594 60.449219 35.960938 59.96875 35.960938 59.40625 C 35.960938 58.796875 36.523438 58.277344 37.3125 58.078125 C 37.535156 58.023438 37.769531 57.992188 38.019531 57.992188 C 39.15625 57.992188 40.078125 58.625 40.078125 59.40625 C 40.078125 60.1875 39.15625 60.820312 38.019531 60.820312 Z M 52.71875 54.398438 L 50.5625 54.398438 C 50.457031 54.398438 50.359375 54.363281 50.28125 54.292969 L 49.113281 53.257812 C 49.03125 53.1875 48.929688 53.148438 48.820312 53.148438 L 41.910156 53.148438 C 41.753906 53.148438 41.640625 53 41.679688 52.847656 C 41.867188 52.144531 42.425781 50.410156 42.691406 49.691406 C 42.757812 49.511719 42.929688 49.390625 43.121094 49.390625 L 52.289062 49.390625 C 52.453125 49.390625 52.585938 49.515625 52.601562 49.675781 L 53.027344 54.054688 C 53.046875 54.238281 52.902344 54.398438 52.71875 54.398438 Z M 83.9375 53.148438 L 77.027344 53.148438 C 76.917969 53.148438 76.816406 53.1875 76.738281 53.257812 L 75.566406 54.292969 C 75.488281 54.363281 75.390625 54.398438 75.289062 54.398438 L 73.132812 54.398438 C 72.945312 54.398438 72.800781 54.238281 72.820312 54.054688 L 73.246094 49.675781 C 73.261719 49.515625 73.398438 49.390625 73.558594 49.390625 L 82.726562 49.390625 C 82.917969 49.390625 83.089844 49.511719 83.160156 49.691406 C 83.425781 50.410156 83.980469 52.144531 84.167969 52.847656 C 84.210938 53 84.09375 53.148438 83.9375 53.148438 Z M 84.097656 49.230469 C 83.960938 48.789062 83.554688 48.492188 83.09375 48.492188 L 42.753906 48.492188 C 42.292969 48.492188 41.886719 48.789062 41.75 49.230469 L 39.960938 54.984375 C 39.847656 55.34375 39.453125 55.527344 39.105469 55.386719 L 37.785156 54.835938 C 37.480469 54.714844 37.324219 54.378906 37.417969 54.0625 L 39.203125 48.023438 C 39.335938 47.578125 39.746094 47.269531 40.210938 47.269531 L 85.636719 47.269531 C 86.101562 47.269531 86.511719 47.578125 86.648438 48.023438 L 88.429688 54.0625 C 88.527344 54.378906 88.367188 54.714844 88.0625 54.835938 L 86.742188 55.386719 C 86.394531 55.527344 86 55.34375 85.890625 54.984375 Z M 88.730469 60.679688 C 88.460938 60.773438 88.152344 60.820312 87.832031 60.820312 C 86.691406 60.820312 85.773438 60.1875 85.773438 59.40625 C 85.773438 58.625 86.691406 57.992188 87.832031 57.992188 C 88.078125 57.992188 88.316406 58.023438 88.539062 58.078125 C 89.324219 58.277344 89.886719 58.796875 89.886719 59.40625 C 89.886719 59.96875 89.414062 60.449219 88.730469 60.679688 " fill-opacity="1" fill-rule="nonzero"/><g fill="#000000" fill-opacity="1"><g transform="translate(108.73346, 52.766004)"><g><path d="M 8.015625 -31.40625 C 8.023438 -31.695312 8.035156 -31.9375 8.046875 -32.125 C 8.066406 -32.3125 8.097656 -32.46875 8.140625 -32.59375 C 8.179688 -32.726562 8.238281 -32.828125 8.3125 -32.890625 C 8.394531 -32.953125 8.523438 -33 8.703125 -33.03125 L 16.953125 -35.015625 C 17.160156 -35.078125 17.367188 -35.109375 17.578125 -35.109375 C 17.796875 -35.109375 17.945312 -35.035156 18.03125 -34.890625 C 18.125 -34.742188 18.171875 -34.472656 18.171875 -34.078125 L 17.453125 -26.421875 L 17.03125 -21.84375 C 16.9375 -20.78125 16.835938 -19.75 16.734375 -18.75 C 16.640625 -17.75 16.550781 -16.820312 16.46875 -15.96875 C 16.382812 -15.113281 16.304688 -14.359375 16.234375 -13.703125 C 16.171875 -13.046875 16.125 -12.515625 16.09375 -12.109375 L 16.046875 -11.421875 C 15.921875 -9.609375 15.578125 -7.875 15.015625 -6.21875 C 14.453125 -4.570312 13.703125 -3.113281 12.765625 -1.84375 C 11.835938 -0.582031 10.734375 0.421875 9.453125 1.171875 C 8.171875 1.921875 6.753906 2.296875 5.203125 2.296875 C 4.398438 2.296875 3.804688 2.273438 3.421875 2.234375 C 3.035156 2.203125 2.757812 2.148438 2.59375 2.078125 C 2.425781 2.015625 2.320312 1.921875 2.28125 1.796875 C 2.238281 1.679688 2.171875 1.535156 2.078125 1.359375 L 1.28125 -4.4375 C 1.28125 -4.46875 1.332031 -4.535156 1.4375 -4.640625 C 1.539062 -4.742188 1.625 -4.8125 1.6875 -4.84375 C 2.257812 -5.0625 2.820312 -5.3125 3.375 -5.59375 C 3.9375 -5.882812 4.4375 -6.222656 4.875 -6.609375 C 5.3125 -7.003906 5.671875 -7.46875 5.953125 -8 C 6.234375 -8.53125 6.390625 -9.15625 6.421875 -9.875 Z M 8.015625 -31.40625 "/></g></g><g transform="translate(126.909551, 52.766004)"><g><path d="M 27.21875 -4.796875 C 27.195312 -4.734375 27.1875 -4.671875 27.1875 -4.609375 C 27.1875 -4.554688 27.1875 -4.503906 27.1875 -4.453125 C 27.1875 -4.054688 27.25 -3.726562 27.375 -3.46875 C 27.5 -3.207031 27.632812 -2.992188 27.78125 -2.828125 C 27.9375 -2.660156 28.078125 -2.523438 28.203125 -2.421875 C 28.335938 -2.316406 28.40625 -2.222656 28.40625 -2.140625 C 28.40625 -1.921875 28.164062 -1.71875 27.6875 -1.53125 L 21.28125 1.21875 C 21.257812 1.226562 21.203125 1.234375 21.109375 1.234375 C 20.984375 1.234375 20.851562 1.125 20.71875 0.90625 C 20.59375 0.6875 20.46875 0.40625 20.34375 0.0625 C 20.226562 -0.28125 20.117188 -0.644531 20.015625 -1.03125 C 19.910156 -1.425781 19.820312 -1.789062 19.75 -2.125 C 18.75 -0.957031 17.664062 -0.109375 16.5 0.421875 C 15.34375 0.960938 14.191406 1.234375 13.046875 1.234375 C 11.710938 1.234375 10.40625 0.9375 9.125 0.34375 C 7.851562 -0.238281 6.722656 -1.070312 5.734375 -2.15625 C 4.753906 -3.25 3.96875 -4.566406 3.375 -6.109375 C 2.78125 -7.648438 2.484375 -9.378906 2.484375 -11.296875 C 2.484375 -13.578125 2.8125 -15.65625 3.46875 -17.53125 C 4.125 -19.40625 5.015625 -21.015625 6.140625 -22.359375 C 7.273438 -23.710938 8.59375 -24.757812 10.09375 -25.5 C 11.601562 -26.238281 13.195312 -26.609375 14.875 -26.609375 C 16.070312 -26.609375 17.203125 -26.363281 18.265625 -25.875 C 19.328125 -25.394531 20.335938 -24.773438 21.296875 -24.015625 C 21.390625 -24.492188 21.441406 -24.875 21.453125 -25.15625 C 21.472656 -25.445312 21.507812 -25.671875 21.5625 -25.828125 C 21.625 -25.984375 21.734375 -26.085938 21.890625 -26.140625 C 22.046875 -26.203125 22.3125 -26.25 22.6875 -26.28125 C 23.820312 -26.4375 24.957031 -26.582031 26.09375 -26.71875 C 27.238281 -26.851562 28.429688 -26.953125 29.671875 -27.015625 Z M 20.078125 -13.78125 C 20.234375 -14.6875 20.335938 -15.539062 20.390625 -16.34375 C 20.453125 -17.144531 20.5 -17.882812 20.53125 -18.5625 C 20.28125 -18.75 20.003906 -18.945312 19.703125 -19.15625 C 19.410156 -19.363281 19.09375 -19.554688 18.75 -19.734375 C 18.414062 -19.921875 18.0625 -20.066406 17.6875 -20.171875 C 17.3125 -20.285156 16.914062 -20.34375 16.5 -20.34375 C 15.644531 -20.34375 14.925781 -20.0625 14.34375 -19.5 C 13.757812 -18.945312 13.289062 -18.265625 12.9375 -17.453125 C 12.582031 -16.640625 12.328125 -15.78125 12.171875 -14.875 C 12.023438 -13.96875 11.953125 -13.164062 11.953125 -12.46875 C 11.953125 -9.957031 12.28125 -8.117188 12.9375 -6.953125 C 13.59375 -5.785156 14.507812 -5.203125 15.6875 -5.203125 C 16.164062 -5.203125 16.695312 -5.335938 17.28125 -5.609375 C 17.875 -5.878906 18.472656 -6.25 19.078125 -6.71875 Z M 20.078125 -13.78125 "/></g></g><g transform="translate(156.678265, 52.766004)"><g><path d="M 2.984375 -6.578125 C 2.984375 -6.597656 2.976562 -6.609375 2.96875 -6.609375 C 2.957031 -6.617188 2.953125 -6.632812 2.953125 -6.65625 C 2.953125 -6.863281 3.066406 -6.96875 3.296875 -6.96875 C 3.429688 -6.96875 3.554688 -6.910156 3.671875 -6.796875 C 4.304688 -6.191406 5.03125 -5.695312 5.84375 -5.3125 C 6.664062 -4.9375 7.554688 -4.75 8.515625 -4.75 C 8.765625 -4.75 9.054688 -4.773438 9.390625 -4.828125 C 9.722656 -4.878906 10.039062 -4.96875 10.34375 -5.09375 C 10.644531 -5.226562 10.894531 -5.398438 11.09375 -5.609375 C 11.300781 -5.828125 11.40625 -6.097656 11.40625 -6.421875 C 11.40625 -6.765625 11.316406 -7.082031 11.140625 -7.375 C 10.960938 -7.675781 10.734375 -7.921875 10.453125 -8.109375 C 10.285156 -8.222656 10.003906 -8.414062 9.609375 -8.6875 C 9.210938 -8.96875 8.785156 -9.265625 8.328125 -9.578125 C 7.878906 -9.898438 7.453125 -10.203125 7.046875 -10.484375 C 6.640625 -10.773438 6.359375 -10.984375 6.203125 -11.109375 C 5.484375 -11.648438 4.910156 -12.195312 4.484375 -12.75 C 4.066406 -13.3125 3.75 -13.890625 3.53125 -14.484375 C 3.3125 -15.085938 3.164062 -15.710938 3.09375 -16.359375 C 3.03125 -17.015625 3 -17.707031 3 -18.4375 C 3 -19.550781 3.289062 -20.597656 3.875 -21.578125 C 4.46875 -22.566406 5.242188 -23.429688 6.203125 -24.171875 C 7.171875 -24.921875 8.265625 -25.515625 9.484375 -25.953125 C 10.710938 -26.390625 11.960938 -26.609375 13.234375 -26.609375 C 14.285156 -26.609375 15.316406 -26.445312 16.328125 -26.125 C 17.347656 -25.8125 18.296875 -25.273438 19.171875 -24.515625 C 19.253906 -23.515625 19.3125 -22.53125 19.34375 -21.5625 C 19.375 -20.59375 19.421875 -19.570312 19.484375 -18.5 C 19.484375 -18.300781 19.4375 -18.164062 19.34375 -18.09375 C 19.25 -18.019531 19.140625 -17.984375 19.015625 -17.984375 C 18.898438 -17.984375 18.800781 -18.023438 18.71875 -18.109375 C 18.351562 -18.453125 17.976562 -18.796875 17.59375 -19.140625 C 17.21875 -19.484375 16.816406 -19.785156 16.390625 -20.046875 C 15.972656 -20.304688 15.523438 -20.519531 15.046875 -20.6875 C 14.566406 -20.851562 14.054688 -20.9375 13.515625 -20.9375 C 13.179688 -20.9375 12.847656 -20.90625 12.515625 -20.84375 C 12.179688 -20.789062 11.878906 -20.6875 11.609375 -20.53125 C 11.335938 -20.382812 11.117188 -20.1875 10.953125 -19.9375 C 10.785156 -19.6875 10.703125 -19.359375 10.703125 -18.953125 C 10.703125 -18.492188 10.757812 -18.097656 10.875 -17.765625 C 10.988281 -17.429688 11.25 -17.109375 11.65625 -16.796875 L 16.09375 -13.78125 C 16.90625 -13.226562 17.5625 -12.6875 18.0625 -12.15625 C 18.5625 -11.625 18.953125 -11.09375 19.234375 -10.5625 C 19.523438 -10.039062 19.722656 -9.519531 19.828125 -9 C 19.929688 -8.488281 19.984375 -7.976562 19.984375 -7.46875 C 19.984375 -6.03125 19.648438 -4.765625 18.984375 -3.671875 C 18.328125 -2.585938 17.472656 -1.679688 16.421875 -0.953125 C 15.378906 -0.234375 14.191406 0.304688 12.859375 0.671875 C 11.535156 1.046875 10.207031 1.234375 8.875 1.234375 C 7.851562 1.234375 6.867188 1.125 5.921875 0.90625 C 4.972656 0.695312 4.097656 0.367188 3.296875 -0.078125 Z M 2.984375 -6.578125 "/></g></g><g transform="translate(177.215816, 52.766004)"><g><path d="M 5.578125 -34.671875 C 5.578125 -34.765625 5.570312 -34.851562 5.5625 -34.9375 C 5.5625 -35.019531 5.5625 -35.097656 5.5625 -35.171875 C 5.5625 -35.316406 5.613281 -35.441406 5.71875 -35.546875 C 5.832031 -35.648438 6.101562 -35.757812 6.53125 -35.875 L 13.234375 -37.46875 C 13.410156 -37.5 13.640625 -37.566406 13.921875 -37.671875 C 14.210938 -37.785156 14.492188 -37.84375 14.765625 -37.84375 C 15.316406 -37.84375 15.59375 -37.59375 15.59375 -37.09375 C 15.59375 -37.050781 15.566406 -36.71875 15.515625 -36.09375 C 15.472656 -35.476562 15.410156 -34.707031 15.328125 -33.78125 C 15.253906 -32.863281 15.171875 -31.859375 15.078125 -30.765625 C 14.984375 -29.679688 14.882812 -28.644531 14.78125 -27.65625 C 14.6875 -26.675781 14.597656 -25.816406 14.515625 -25.078125 C 14.441406 -24.335938 14.378906 -23.859375 14.328125 -23.640625 C 15.078125 -24.046875 15.859375 -24.429688 16.671875 -24.796875 C 17.484375 -25.171875 18.296875 -25.488281 19.109375 -25.75 C 19.929688 -26.019531 20.75 -26.226562 21.5625 -26.375 C 22.382812 -26.53125 23.175781 -26.609375 23.9375 -26.609375 C 24.914062 -26.609375 25.820312 -26.46875 26.65625 -26.1875 C 27.5 -25.914062 28.234375 -25.457031 28.859375 -24.8125 C 29.492188 -24.164062 29.988281 -23.320312 30.34375 -22.28125 C 30.707031 -21.238281 30.890625 -19.960938 30.890625 -18.453125 C 30.890625 -18.078125 30.878906 -17.6875 30.859375 -17.28125 C 30.847656 -16.875 30.816406 -16.457031 30.765625 -16.03125 L 29.734375 -6.265625 C 29.660156 -5.597656 29.613281 -4.898438 29.59375 -4.171875 C 29.582031 -3.453125 29.578125 -2.710938 29.578125 -1.953125 C 29.578125 -1.828125 29.578125 -1.71875 29.578125 -1.625 C 29.585938 -1.539062 29.59375 -1.46875 29.59375 -1.40625 C 29.59375 -1.257812 29.53125 -1.144531 29.40625 -1.0625 C 29.289062 -0.988281 29.03125 -0.890625 28.625 -0.765625 L 22.78125 0.859375 C 22.601562 0.910156 22.367188 0.984375 22.078125 1.078125 C 21.796875 1.179688 21.519531 1.234375 21.25 1.234375 C 20.976562 1.234375 20.769531 1.171875 20.625 1.046875 C 20.488281 0.929688 20.421875 0.703125 20.421875 0.359375 C 20.523438 -0.835938 20.613281 -1.800781 20.6875 -2.53125 C 20.757812 -3.257812 20.816406 -3.84375 20.859375 -4.28125 C 20.898438 -4.71875 20.9375 -5.050781 20.96875 -5.28125 C 21 -5.507812 21.019531 -5.710938 21.03125 -5.890625 C 21.050781 -6.078125 21.078125 -6.285156 21.109375 -6.515625 C 21.140625 -6.753906 21.175781 -7.09375 21.21875 -7.53125 C 21.257812 -7.976562 21.3125 -8.566406 21.375 -9.296875 C 21.445312 -10.023438 21.539062 -10.988281 21.65625 -12.1875 C 21.71875 -12.820312 21.785156 -13.453125 21.859375 -14.078125 C 21.929688 -14.710938 21.96875 -15.289062 21.96875 -15.8125 C 21.96875 -16.476562 21.929688 -17.082031 21.859375 -17.625 C 21.785156 -18.175781 21.65625 -18.644531 21.46875 -19.03125 C 21.289062 -19.425781 21.039062 -19.734375 20.71875 -19.953125 C 20.40625 -20.179688 20.003906 -20.296875 19.515625 -20.296875 C 19.140625 -20.296875 18.640625 -20.210938 18.015625 -20.046875 C 17.390625 -19.890625 16.757812 -19.628906 16.125 -19.265625 C 15.5 -18.898438 14.941406 -18.421875 14.453125 -17.828125 C 13.972656 -17.234375 13.703125 -16.5 13.640625 -15.625 C 13.515625 -14.394531 13.414062 -13.390625 13.34375 -12.609375 C 13.269531 -11.835938 13.207031 -11.195312 13.15625 -10.6875 C 13.113281 -10.175781 13.078125 -9.769531 13.046875 -9.46875 C 13.023438 -9.164062 13.007812 -8.890625 13 -8.640625 C 12.976562 -8.554688 12.953125 -8.359375 12.921875 -8.046875 C 12.890625 -7.734375 12.847656 -7.363281 12.796875 -6.9375 C 12.753906 -6.507812 12.707031 -6.050781 12.65625 -5.5625 C 12.613281 -5.082031 12.570312 -4.625 12.53125 -4.1875 C 12.488281 -3.757812 12.457031 -3.390625 12.4375 -3.078125 C 12.414062 -2.773438 12.40625 -2.582031 12.40625 -2.5 C 12.40625 -2.375 12.40625 -2.265625 12.40625 -2.171875 C 12.414062 -2.085938 12.421875 -2.007812 12.421875 -1.9375 C 12.421875 -1.800781 12.359375 -1.691406 12.234375 -1.609375 C 12.117188 -1.523438 11.859375 -1.425781 11.453125 -1.3125 L 5.21875 0.859375 C 5.039062 0.921875 4.8125 1 4.53125 1.09375 C 4.25 1.1875 3.972656 1.234375 3.703125 1.234375 C 3.460938 1.234375 3.257812 1.164062 3.09375 1.03125 C 2.9375 0.894531 2.859375 0.671875 2.859375 0.359375 Z M 5.578125 -34.671875 "/></g></g><g transform="translate(208.892782, 52.766004)"><g><path d="M 17.078125 -26.609375 C 18.585938 -26.609375 19.957031 -26.328125 21.1875 -25.765625 C 22.414062 -25.203125 23.472656 -24.472656 24.359375 -23.578125 C 25.242188 -22.679688 25.921875 -21.675781 26.390625 -20.5625 C 26.867188 -19.445312 27.109375 -18.332031 27.109375 -17.21875 C 27.109375 -16.226562 26.804688 -15.238281 26.203125 -14.25 C 25.597656 -13.257812 24.75 -12.363281 23.65625 -11.5625 C 22.570312 -10.769531 21.265625 -10.125 19.734375 -9.625 C 18.210938 -9.132812 16.539062 -8.890625 14.71875 -8.890625 C 13.757812 -8.890625 12.753906 -8.988281 11.703125 -9.1875 C 11.773438 -8.5 11.976562 -7.90625 12.3125 -7.40625 C 12.644531 -6.914062 13.0625 -6.507812 13.5625 -6.1875 C 14.070312 -5.875 14.648438 -5.640625 15.296875 -5.484375 C 15.941406 -5.335938 16.609375 -5.265625 17.296875 -5.265625 C 18.054688 -5.265625 18.789062 -5.332031 19.5 -5.46875 C 20.207031 -5.601562 20.882812 -5.78125 21.53125 -6 C 22.1875 -6.226562 22.816406 -6.476562 23.421875 -6.75 C 24.023438 -7.019531 24.597656 -7.289062 25.140625 -7.5625 C 25.285156 -7.59375 25.40625 -7.617188 25.5 -7.640625 C 25.601562 -7.660156 25.707031 -7.671875 25.8125 -7.671875 C 25.8125 -7.671875 25.804688 -7.546875 25.796875 -7.296875 C 25.785156 -7.046875 25.78125 -6.6875 25.78125 -6.21875 C 25.78125 -5.757812 25.773438 -5.203125 25.765625 -4.546875 C 25.753906 -3.898438 25.742188 -3.179688 25.734375 -2.390625 C 25.785156 -2.304688 25.816406 -2.222656 25.828125 -2.140625 C 25.847656 -2.066406 25.859375 -2.003906 25.859375 -1.953125 C 25.859375 -1.765625 25.679688 -1.554688 25.328125 -1.328125 C 24.972656 -1.109375 24.515625 -0.878906 23.953125 -0.640625 C 23.390625 -0.398438 22.742188 -0.171875 22.015625 0.046875 C 21.296875 0.265625 20.5625 0.46875 19.8125 0.65625 C 19.070312 0.84375 18.347656 0.984375 17.640625 1.078125 C 16.941406 1.179688 16.332031 1.234375 15.8125 1.234375 C 14.09375 1.234375 12.425781 0.9375 10.8125 0.34375 C 9.195312 -0.25 7.765625 -1.101562 6.515625 -2.21875 C 5.273438 -3.332031 4.28125 -4.679688 3.53125 -6.265625 C 2.78125 -7.859375 2.40625 -9.648438 2.40625 -11.640625 C 2.40625 -13.722656 2.765625 -15.671875 3.484375 -17.484375 C 4.203125 -19.304688 5.207031 -20.894531 6.5 -22.25 C 7.789062 -23.601562 9.332031 -24.664062 11.125 -25.4375 C 12.925781 -26.21875 14.910156 -26.609375 17.078125 -26.609375 Z M 16.796875 -20.265625 C 16.140625 -20.265625 15.535156 -20.125 14.984375 -19.84375 C 14.441406 -19.570312 13.941406 -19.175781 13.484375 -18.65625 C 13.035156 -18.144531 12.644531 -17.523438 12.3125 -16.796875 C 11.976562 -16.078125 11.707031 -15.28125 11.5 -14.40625 C 13.132812 -14.6875 14.492188 -14.984375 15.578125 -15.296875 C 16.660156 -15.617188 17.523438 -15.941406 18.171875 -16.265625 C 18.828125 -16.597656 19.289062 -16.925781 19.5625 -17.25 C 19.832031 -17.582031 19.96875 -17.898438 19.96875 -18.203125 C 19.96875 -18.484375 19.859375 -18.75 19.640625 -19 C 19.421875 -19.257812 19.148438 -19.484375 18.828125 -19.671875 C 18.515625 -19.867188 18.171875 -20.015625 17.796875 -20.109375 C 17.429688 -20.210938 17.097656 -20.265625 16.796875 -20.265625 Z M 16.796875 -20.265625 "/></g></g><g transform="translate(236.133064, 52.766004)"><g><path d="M 4.5 -20.171875 C 4.695312 -22.347656 4.851562 -24.5 4.96875 -26.625 C 5.09375 -28.757812 5.222656 -30.953125 5.359375 -33.203125 C 5.390625 -33.722656 5.441406 -34.082031 5.515625 -34.28125 C 5.585938 -34.476562 5.769531 -34.609375 6.0625 -34.671875 C 7.539062 -34.941406 9.019531 -35.21875 10.5 -35.5 C 11.988281 -35.78125 13.484375 -36.148438 14.984375 -36.609375 C 15.023438 -36.628906 15.09375 -36.640625 15.1875 -36.640625 C 15.363281 -36.640625 15.453125 -36.554688 15.453125 -36.390625 L 12.359375 -2.34375 L 12.359375 -1.9375 C 12.359375 -1.789062 12.300781 -1.671875 12.1875 -1.578125 C 12.070312 -1.492188 11.8125 -1.394531 11.40625 -1.28125 L 5.15625 1 C 4.976562 1.082031 4.742188 1.164062 4.453125 1.25 C 4.171875 1.34375 3.894531 1.390625 3.625 1.390625 C 3.40625 1.390625 3.210938 1.332031 3.046875 1.21875 C 2.878906 1.101562 2.796875 0.910156 2.796875 0.640625 L 2.796875 0.5 C 2.921875 -1.101562 3.039062 -2.671875 3.15625 -4.203125 C 3.28125 -5.742188 3.410156 -7.332031 3.546875 -8.96875 C 3.679688 -10.601562 3.828125 -12.332031 3.984375 -14.15625 C 4.140625 -15.988281 4.3125 -17.992188 4.5 -20.171875 Z M 4.5 -20.171875 "/></g></g><g transform="translate(250.969715, 52.766004)"><g/></g><g transform="translate(261.465096, 52.766004)"><g><path d="M 3 -16.125 C 3 -17.875 3.207031 -19.554688 3.625 -21.171875 C 4.050781 -22.785156 4.65625 -24.289062 5.4375 -25.6875 C 6.21875 -27.082031 7.160156 -28.351562 8.265625 -29.5 C 9.367188 -30.644531 10.601562 -31.625 11.96875 -32.4375 C 13.34375 -33.257812 14.828125 -33.894531 16.421875 -34.34375 C 18.015625 -34.789062 19.695312 -35.015625 21.46875 -35.015625 C 22.863281 -35.015625 24.085938 -34.921875 25.140625 -34.734375 C 26.203125 -34.554688 27.125 -34.328125 27.90625 -34.046875 C 28.695312 -33.765625 29.359375 -33.457031 29.890625 -33.125 C 30.421875 -32.789062 30.863281 -32.472656 31.21875 -32.171875 C 31.195312 -32.171875 31.1875 -32.113281 31.1875 -32 C 31.1875 -31.757812 31.207031 -31.320312 31.25 -30.6875 C 31.289062 -30.050781 31.335938 -29.34375 31.390625 -28.5625 C 31.453125 -27.789062 31.5 -27.003906 31.53125 -26.203125 C 31.570312 -25.398438 31.59375 -24.703125 31.59375 -24.109375 C 31.59375 -24.015625 31.5625 -23.90625 31.5 -23.78125 C 31.4375 -23.664062 31.28125 -23.609375 31.03125 -23.609375 C 30.882812 -23.609375 30.707031 -23.632812 30.5 -23.6875 C 30.164062 -23.78125 29.742188 -23.992188 29.234375 -24.328125 C 28.722656 -24.671875 28.128906 -25.03125 27.453125 -25.40625 C 26.785156 -25.78125 26.03125 -26.113281 25.1875 -26.40625 C 24.351562 -26.707031 23.445312 -26.859375 22.46875 -26.859375 C 21.164062 -26.859375 19.976562 -26.597656 18.90625 -26.078125 C 17.84375 -25.554688 16.9375 -24.84375 16.1875 -23.9375 C 15.445312 -23.03125 14.867188 -21.953125 14.453125 -20.703125 C 14.035156 -19.460938 13.828125 -18.101562 13.828125 -16.625 C 13.828125 -15.320312 13.96875 -14.078125 14.25 -12.890625 C 14.539062 -11.703125 14.976562 -10.660156 15.5625 -9.765625 C 16.144531 -8.878906 16.867188 -8.171875 17.734375 -7.640625 C 18.597656 -7.109375 19.601562 -6.84375 20.75 -6.84375 C 21.65625 -6.84375 22.457031 -6.875 23.15625 -6.9375 C 23.851562 -7 24.503906 -7.101562 25.109375 -7.25 C 25.710938 -7.394531 26.304688 -7.585938 26.890625 -7.828125 C 27.472656 -8.066406 28.097656 -8.367188 28.765625 -8.734375 C 28.796875 -8.742188 28.875 -8.75 29 -8.75 C 29.113281 -8.75 29.1875 -8.703125 29.21875 -8.609375 C 29.257812 -8.523438 29.28125 -8.347656 29.28125 -8.078125 L 29.28125 -5.21875 C 29.28125 -4.695312 29.273438 -4.1875 29.265625 -3.6875 C 29.265625 -3.1875 29.257812 -2.734375 29.25 -2.328125 C 29.238281 -1.929688 29.226562 -1.609375 29.21875 -1.359375 C 29.21875 -1.117188 29.207031 -1 29.1875 -1 C 28.457031 -0.539062 27.675781 -0.164062 26.84375 0.125 C 26.007812 0.425781 25.148438 0.660156 24.265625 0.828125 C 23.378906 0.992188 22.488281 1.101562 21.59375 1.15625 C 20.707031 1.207031 19.851562 1.234375 19.03125 1.234375 C 16.789062 1.234375 14.691406 0.8125 12.734375 -0.03125 C 10.773438 -0.882812 9.078125 -2.070312 7.640625 -3.59375 C 6.203125 -5.125 5.066406 -6.953125 4.234375 -9.078125 C 3.410156 -11.210938 3 -13.5625 3 -16.125 Z M 3 -16.125 "/></g></g><g transform="translate(292.331055, 52.766004)"><g><path d="M 27.21875 -4.796875 C 27.195312 -4.734375 27.1875 -4.671875 27.1875 -4.609375 C 27.1875 -4.554688 27.1875 -4.503906 27.1875 -4.453125 C 27.1875 -4.054688 27.25 -3.726562 27.375 -3.46875 C 27.5 -3.207031 27.632812 -2.992188 27.78125 -2.828125 C 27.9375 -2.660156 28.078125 -2.523438 28.203125 -2.421875 C 28.335938 -2.316406 28.40625 -2.222656 28.40625 -2.140625 C 28.40625 -1.921875 28.164062 -1.71875 27.6875 -1.53125 L 21.28125 1.21875 C 21.257812 1.226562 21.203125 1.234375 21.109375 1.234375 C 20.984375 1.234375 20.851562 1.125 20.71875 0.90625 C 20.59375 0.6875 20.46875 0.40625 20.34375 0.0625 C 20.226562 -0.28125 20.117188 -0.644531 20.015625 -1.03125 C 19.910156 -1.425781 19.820312 -1.789062 19.75 -2.125 C 18.75 -0.957031 17.664062 -0.109375 16.5 0.421875 C 15.34375 0.960938 14.191406 1.234375 13.046875 1.234375 C 11.710938 1.234375 10.40625 0.9375 9.125 0.34375 C 7.851562 -0.238281 6.722656 -1.070312 5.734375 -2.15625 C 4.753906 -3.25 3.96875 -4.566406 3.375 -6.109375 C 2.78125 -7.648438 2.484375 -9.378906 2.484375 -11.296875 C 2.484375 -13.578125 2.8125 -15.65625 3.46875 -17.53125 C 4.125 -19.40625 5.015625 -21.015625 6.140625 -22.359375 C 7.273438 -23.710938 8.59375 -24.757812 10.09375 -25.5 C 11.601562 -26.238281 13.195312 -26.609375 14.875 -26.609375 C 16.070312 -26.609375 17.203125 -26.363281 18.265625 -25.875 C 19.328125 -25.394531 20.335938 -24.773438 21.296875 -24.015625 C 21.390625 -24.492188 21.441406 -24.875 21.453125 -25.15625 C 21.472656 -25.445312 21.507812 -25.671875 21.5625 -25.828125 C 21.625 -25.984375 21.734375 -26.085938 21.890625 -26.140625 C 22.046875 -26.203125 22.3125 -26.25 22.6875 -26.28125 C 23.820312 -26.4375 24.957031 -26.582031 26.09375 -26.71875 C 27.238281 -26.851562 28.429688 -26.953125 29.671875 -27.015625 Z M 20.078125 -13.78125 C 20.234375 -14.6875 20.335938 -15.539062 20.390625 -16.34375 C 20.453125 -17.144531 20.5 -17.882812 20.53125 -18.5625 C 20.28125 -18.75 20.003906 -18.945312 19.703125 -19.15625 C 19.410156 -19.363281 19.09375 -19.554688 18.75 -19.734375 C 18.414062 -19.921875 18.0625 -20.066406 17.6875 -20.171875 C 17.3125 -20.285156 16.914062 -20.34375 16.5 -20.34375 C 15.644531 -20.34375 14.925781 -20.0625 14.34375 -19.5 C 13.757812 -18.945312 13.289062 -18.265625 12.9375 -17.453125 C 12.582031 -16.640625 12.328125 -15.78125 12.171875 -14.875 C 12.023438 -13.96875 11.953125 -13.164062 11.953125 -12.46875 C 11.953125 -9.957031 12.28125 -8.117188 12.9375 -6.953125 C 13.59375 -5.785156 14.507812 -5.203125 15.6875 -5.203125 C 16.164062 -5.203125 16.695312 -5.335938 17.28125 -5.609375 C 17.875 -5.878906 18.472656 -6.25 19.078125 -6.71875 Z M 20.078125 -13.78125 "/></g></g><g transform="translate(322.09977, 52.766004)"><g><path d="M 22.375 -19.40625 C 22.039062 -19.445312 21.664062 -19.484375 21.25 -19.515625 C 20.832031 -19.554688 20.394531 -19.578125 19.9375 -19.578125 C 19.238281 -19.578125 18.523438 -19.515625 17.796875 -19.390625 C 17.078125 -19.273438 16.40625 -19.039062 15.78125 -18.6875 C 15.164062 -18.34375 14.632812 -17.863281 14.1875 -17.25 C 13.738281 -16.644531 13.453125 -15.851562 13.328125 -14.875 C 13.222656 -13.707031 13.132812 -12.742188 13.0625 -11.984375 C 12.988281 -11.222656 12.9375 -10.597656 12.90625 -10.109375 C 12.875 -9.628906 12.84375 -9.242188 12.8125 -8.953125 C 12.789062 -8.660156 12.773438 -8.382812 12.765625 -8.125 C 12.765625 -8.0625 12.75 -7.882812 12.71875 -7.59375 C 12.695312 -7.3125 12.660156 -6.976562 12.609375 -6.59375 C 12.566406 -6.21875 12.523438 -5.804688 12.484375 -5.359375 C 12.441406 -4.921875 12.394531 -4.507812 12.34375 -4.125 C 12.300781 -3.738281 12.269531 -3.398438 12.25 -3.109375 C 12.226562 -2.828125 12.21875 -2.65625 12.21875 -2.59375 C 12.21875 -2.46875 12.21875 -2.359375 12.21875 -2.265625 C 12.226562 -2.179688 12.234375 -2.101562 12.234375 -2.03125 C 12.234375 -1.90625 12.171875 -1.796875 12.046875 -1.703125 C 11.929688 -1.617188 11.664062 -1.519531 11.25 -1.40625 L 4.9375 0.859375 C 4.757812 0.921875 4.523438 1 4.234375 1.09375 C 3.953125 1.1875 3.675781 1.234375 3.40625 1.234375 C 3.1875 1.234375 2.992188 1.175781 2.828125 1.0625 C 2.660156 0.957031 2.578125 0.769531 2.578125 0.5 L 4.625 -23.140625 C 4.675781 -23.660156 4.734375 -24.019531 4.796875 -24.21875 C 4.867188 -24.414062 5.050781 -24.546875 5.34375 -24.609375 C 6.789062 -24.898438 8.285156 -25.191406 9.828125 -25.484375 C 11.367188 -25.773438 12.863281 -26.148438 14.3125 -26.609375 C 14.4375 -26.609375 14.507812 -26.585938 14.53125 -26.546875 C 14.5625 -26.515625 14.578125 -26.457031 14.578125 -26.375 C 14.578125 -26.34375 14.570312 -26.296875 14.5625 -26.234375 C 14.550781 -26.171875 14.523438 -26.023438 14.484375 -25.796875 C 14.441406 -25.578125 14.382812 -25.238281 14.3125 -24.78125 C 14.25 -24.332031 14.15625 -23.703125 14.03125 -22.890625 C 14.757812 -23.460938 15.5625 -23.988281 16.4375 -24.46875 C 17.320312 -24.945312 18.207031 -25.351562 19.09375 -25.6875 C 19.988281 -26.03125 20.847656 -26.300781 21.671875 -26.5 C 22.503906 -26.707031 23.226562 -26.8125 23.84375 -26.8125 Z M 22.375 -19.40625 "/></g></g><g transform="translate(343.663005, 52.766004)"><g><path d="M 2.984375 -6.578125 C 2.984375 -6.597656 2.976562 -6.609375 2.96875 -6.609375 C 2.957031 -6.617188 2.953125 -6.632812 2.953125 -6.65625 C 2.953125 -6.863281 3.066406 -6.96875 3.296875 -6.96875 C 3.429688 -6.96875 3.554688 -6.910156 3.671875 -6.796875 C 4.304688 -6.191406 5.03125 -5.695312 5.84375 -5.3125 C 6.664062 -4.9375 7.554688 -4.75 8.515625 -4.75 C 8.765625 -4.75 9.054688 -4.773438 9.390625 -4.828125 C 9.722656 -4.878906 10.039062 -4.96875 10.34375 -5.09375 C 10.644531 -5.226562 10.894531 -5.398438 11.09375 -5.609375 C 11.300781 -5.828125 11.40625 -6.097656 11.40625 -6.421875 C 11.40625 -6.765625 11.316406 -7.082031 11.140625 -7.375 C 10.960938 -7.675781 10.734375 -7.921875 10.453125 -8.109375 C 10.285156 -8.222656 10.003906 -8.414062 9.609375 -8.6875 C 9.210938 -8.96875 8.785156 -9.265625 8.328125 -9.578125 C 7.878906 -9.898438 7.453125 -10.203125 7.046875 -10.484375 C 6.640625 -10.773438 6.359375 -10.984375 6.203125 -11.109375 C 5.484375 -11.648438 4.910156 -12.195312 4.484375 -12.75 C 4.066406 -13.3125 3.75 -13.890625 3.53125 -14.484375 C 3.3125 -15.085938 3.164062 -15.710938 3.09375 -16.359375 C 3.03125 -17.015625 3 -17.707031 3 -18.4375 C 3 -19.550781 3.289062 -20.597656 3.875 -21.578125 C 4.46875 -22.566406 5.242188 -23.429688 6.203125 -24.171875 C 7.171875 -24.921875 8.265625 -25.515625 9.484375 -25.953125 C 10.710938 -26.390625 11.960938 -26.609375 13.234375 -26.609375 C 14.285156 -26.609375 15.316406 -26.445312 16.328125 -26.125 C 17.347656 -25.8125 18.296875 -25.273438 19.171875 -24.515625 C 19.253906 -23.515625 19.3125 -22.53125 19.34375 -21.5625 C 19.375 -20.59375 19.421875 -19.570312 19.484375 -18.5 C 19.484375 -18.300781 19.4375 -18.164062 19.34375 -18.09375 C 19.25 -18.019531 19.140625 -17.984375 19.015625 -17.984375 C 18.898438 -17.984375 18.800781 -18.023438 18.71875 -18.109375 C 18.351562 -18.453125 17.976562 -18.796875 17.59375 -19.140625 C 17.21875 -19.484375 16.816406 -19.785156 16.390625 -20.046875 C 15.972656 -20.304688 15.523438 -20.519531 15.046875 -20.6875 C 14.566406 -20.851562 14.054688 -20.9375 13.515625 -20.9375 C 13.179688 -20.9375 12.847656 -20.90625 12.515625 -20.84375 C 12.179688 -20.789062 11.878906 -20.6875 11.609375 -20.53125 C 11.335938 -20.382812 11.117188 -20.1875 10.953125 -19.9375 C 10.785156 -19.6875 10.703125 -19.359375 10.703125 -18.953125 C 10.703125 -18.492188 10.757812 -18.097656 10.875 -17.765625 C 10.988281 -17.429688 11.25 -17.109375 11.65625 -16.796875 L 16.09375 -13.78125 C 16.90625 -13.226562 17.5625 -12.6875 18.0625 -12.15625 C 18.5625 -11.625 18.953125 -11.09375 19.234375 -10.5625 C 19.523438 -10.039062 19.722656 -9.519531 19.828125 -9 C 19.929688 -8.488281 19.984375 -7.976562 19.984375 -7.46875 C 19.984375 -6.03125 19.648438 -4.765625 18.984375 -3.671875 C 18.328125 -2.585938 17.472656 -1.679688 16.421875 -0.953125 C 15.378906 -0.234375 14.191406 0.304688 12.859375 0.671875 C 11.535156 1.046875 10.207031 1.234375 8.875 1.234375 C 7.851562 1.234375 6.867188 1.125 5.921875 0.90625 C 4.972656 0.695312 4.097656 0.367188 3.296875 -0.078125 Z M 2.984375 -6.578125 "/></g></g></g></svg>